<?xml version="1.0" encoding="utf-8"?>
<!-- Generated by IcoMoon.io -->
<!DOCTYPE svg PUBLIC "-//W3C//DTD SVG 1.1//EN" "http://www.w3.org/Graphics/SVG/1.1/DTD/svg11.dtd">
<svg version="1.1" xmlns="http://www.w3.org/2000/svg" xmlns:xlink="http://www.w3.org/1999/xlink" width="24" height="24" viewBox="0 0 24 24">
<g id="icomoon-ignore">
</g>
<path d="M13.004 16.661v2.826q0 0.897-0.522 0.897-0.308 0-0.603-0.295v-4.031q0.295-0.295 0.603-0.295 0.522 0 0.522 0.897zM17.531 16.674v0.616h-1.205v-0.616q0-0.911 0.603-0.911t0.603 0.911zM4.594 13.754h1.433v-1.259h-4.179v1.259h1.406v7.621h1.339v-7.621zM8.451 21.375h1.192v-6.616h-1.192v5.063q-0.402 0.563-0.763 0.563-0.241 0-0.281-0.281-0.013-0.040-0.013-0.469v-4.875h-1.192v5.237q0 0.656 0.107 0.978 0.161 0.496 0.777 0.496 0.643 0 1.366-0.817v0.723zM14.196 19.393v-2.638q0-0.978-0.121-1.326-0.228-0.75-0.951-0.75-0.67 0-1.246 0.723v-2.906h-1.192v8.879h1.192v-0.643q0.603 0.737 1.246 0.737 0.723 0 0.951-0.737 0.121-0.362 0.121-1.339zM18.723 19.259v-0.174h-1.219q0 0.683-0.027 0.817-0.094 0.482-0.536 0.482-0.616 0-0.616-0.924v-1.165h2.397v-1.379q0-1.058-0.362-1.554-0.522-0.683-1.42-0.683-0.911 0-1.433 0.683-0.375 0.496-0.375 1.554v2.317q0 1.058 0.388 1.554 0.522 0.683 1.446 0.683 0.964 0 1.446-0.71 0.241-0.362 0.281-0.723 0.027-0.121 0.027-0.777zM10.58 7.031v-2.813q0-0.924-0.576-0.924t-0.576 0.924v2.813q0 0.938 0.576 0.938t0.576-0.938zM20.21 17.089q0 3.134-0.348 4.688-0.188 0.79-0.777 1.326t-1.366 0.616q-2.464 0.281-7.433 0.281t-7.433-0.281q-0.777-0.080-1.373-0.616t-0.77-1.326q-0.348-1.5-0.348-4.688 0-3.134 0.348-4.688 0.188-0.79 0.777-1.326t1.379-0.629q2.451-0.268 7.42-0.268t7.433 0.268q0.777 0.094 1.373 0.629t0.77 1.326q0.348 1.5 0.348 4.688zM6.844 0h1.366l-1.621 5.344v3.629h-1.339v-3.629q-0.188-0.991-0.817-2.839-0.496-1.379-0.871-2.504h1.42l0.951 3.522zM11.799 4.46v2.344q0 1.085-0.375 1.58-0.496 0.683-1.42 0.683-0.897 0-1.406-0.683-0.375-0.509-0.375-1.58v-2.344q0-1.071 0.375-1.567 0.509-0.683 1.406-0.683 0.924 0 1.42 0.683 0.375 0.496 0.375 1.567zM16.286 2.29v6.683h-1.219v-0.737q-0.71 0.83-1.379 0.83-0.616 0-0.79-0.496-0.107-0.321-0.107-1.004v-5.277h1.219v4.915q0 0.442 0.013 0.469 0.040 0.295 0.281 0.295 0.362 0 0.763-0.576v-5.103h1.219z" fill="#000000"></path>
</svg>
